PathFileType	4	(X/Y/Z)	/Users/itak/Documents/Research/Walk-IL/dataset/trc/00037_00004.trc
DataRate	CameraRate	NumFrames	NumMarkers	Units	OrigDataRate	OrigDataStartFrame	OrigNumFrames
100.000000	100.000000	4	53	mm	100.000000	680	778
Frame#	Time	RPSI			LPSI			L3			STRN			T10			C7			CLAV			RBAK			LBAK			LSHO			LUPA			LAEL			LAOL			LWTS			LWPS			LFRA			LIFD			LHPS			LHTS			RSHO			RUPA			RAEL			RAOL			RWTS			RWPS			RFRA			RIFD			RHTS			RHPS			RBHD			LFHD			RFHD			LBHD			RHIP			RASI			LASI			LKNE			LTHI			LANK			LTIP			LTOE			LMT1			LMT5			LHEE			RKNE			RTHI			RANK			RTIP			RTOE			RMT1			RMT5			RHEE			LHIP			
		X1	Y1	Z1	X2	Y2	Z2	X3	Y3	Z3	X4	Y4	Z4	X5	Y5	Z5	X6	Y6	Z6	X7	Y7	Z7	X8	Y8	Z8	X9	Y9	Z9	X10	Y10	Z10	X11	Y11	Z11	X12	Y12	Z12	X13	Y13	Z13	X14	Y14	Z14	X15	Y15	Z15	X16	Y16	Z16	X17	Y17	Z17	X18	Y18	Z18	X19	Y19	Z19	X20	Y20	Z20	X21	Y21	Z21	X22	Y22	Z22	X23	Y23	Z23	X24	Y24	Z24	X25	Y25	Z25	X26	Y26	Z26	X27	Y27	Z27	X28	Y28	Z28	X29	Y29	Z29	X30	Y30	Z30	X31	Y31	Z31	X32	Y32	Z32	X33	Y33	Z33	X34	Y34	Z34	X35	Y35	Z35	X36	Y36	Z36	X37	Y37	Z37	X38	Y38	Z38	X39	Y39	Z39	X40	Y40	Z40	X41	Y41	Z41	X42	Y42	Z42	X43	Y43	Z43	X44	Y44	Z44	X45	Y45	Z45	X46	Y46	Z46	X47	Y47	Z47	X48	Y48	Z48	X49	Y49	Z49	X50	Y50	Z50	X51	Y51	Z51	X52	Y52	Z52	X53	Y53	Z53	

681	6.8	767.4205322265625	1072.654174804688	823.3182373046875	829.3963012695312	1062.98046875	974.1141967773438	810.62353515625	1131.971557617188	907.8506469726562	595.2691650390625	1316.0703125	976.7145385742188	837.9229125976562	1275.848022460938	913.458984375	783.306884765625	1541.845581054688	946.11865234375	634.1854248046875	1442.308349609375	972.9786987304688	825.6148681640625	1408.801635742188	852.8809814453125	826.4305419921875	1501.452514648438	1034.622192382812	744.6312255859375	1504.3076171875	1128.906005859375	801.3345947265625	1386.394775390625	1202.054321289062	822.461181640625	1175.019775390625	1241.99853515625	851.4447631835938	1153.550170898438	1142.836791992188	696.7189331054688	934.2385864257812	1235.363159179688	780.2193603515625	912.0833129882812	1260.26611328125	802.8001708984375	1062.383911132812	1263.489990234375	645.4188232421875	752.7537231445312	1243.963500976562	736.7001342773438	828.1879272460938	1276.625366210938	669.2330932617188	846.0576171875	1262.870849609375	673.7964477539062	1523.013671875	792.40185546875	681.1412353515625	1458.760131835938	718.3455810546875	756.9894409179688	1206.971923828125	666.100341796875	769.6004638671875	1172.007446289062	758.9903564453125	662.99462890625	931.774169921875	689.0114135742188	720.85595703125	928.5551147460938	615.3333740234375	752.4546508789062	1130.530151367188	644.1522827148438	671.2974853515625	744.0377807617188	696.2720947265625	639.8063354492188	820.4886474609375	670.6180419921875	691.3301391601562	823.7169799804688	613.3387451171875	690.1011352539062	1728.210571289062	1020.017456054688	510.761962890625	1688.662719726562	901.100830078125	512.54931640625	1697.109619140625	999.2042846679688	682.6670532226562	1711.4345703125	876.2759399414062	620.3995361328125	959.3705444335938	766.9254150390625	555.7705688476562	995.905517578125	871.88623046875	645.12841796875	1006.903991699219	1090.15087890625	654.3475341796875	527.539794921875	1110.053344726562	712.000244140625	658.19482421875	1125.419799804688	725.1542358398438	31.58795356750488	1090.678955078125	720.6700439453125	284.8171691894531	1108.716918945312	495.7857971191406	39.5739860534668	1068.6416015625	551.7263793945312	48.72013473510742	1044.236450195312	607.9329223632812	32.38357162475586	1137.13232421875	780.9880981445312	41.22763061523438	1025.981567382812	556.1267700195312	523.9423217773438	831.2413940429688	581.0824584960938	796.5265502929688	785.3575439453125	805.0980224609375	87.85355377197266	767.8245239257812	604.73583984375	401.9606323242188	812.6461181640625	599.0908203125	46.28763580322266	868.039306640625	667.6259155273438	57.03002166748047	880.0201416015625	659.8797607421875	57.9456901550293	784.3911743164062	869.3465576171875	97.99726867675781	797.6173706054688	775.645263671875	959.0331420898438	1108.152099609375	
682	6.81	765.7220458984375	1073.0322265625	826.2108154296875	827.1099243164062	1063.225952148438	977.2658081054688	808.6422729492188	1132.359375	911.008544921875	592.6263427734375	1316.154296875	979.0828247070312	835.6563110351562	1276.27490234375	916.9505615234375	780.577880859375	1542.143920898438	949.7335815429688	631.4003295898438	1442.462890625	975.6908569335938	823.4718627929688	1409.277099609375	856.50537109375	823.2984008789062	1501.687622070312	1038.429321289062	741.0181884765625	1504.301513671875	1132.268432617188	797.2015380859375	1386.336547851562	1205.665649414062	817.711181640625	1174.988037109375	1245.8193359375	847.206787109375	1153.368774414062	1146.850952148438	691.0865478515625	934.691162109375	1238.630004882812	774.395751953125	912.2255859375	1263.98974609375	797.523681640625	1062.442260742188	1267.27392578125	638.9251098632812	753.47607421875	1247.000732421875	730.3538818359375	828.5068969726562	1280.159301757812	663.2386474609375	846.7411499023438	1266.12646484375	671.8458862304688	1523.427978515625	795.4493408203125	679.5459594726562	1459.204956054688	721.3633422851562	755.5673217773438	1207.334838867188	669.3690795898438	767.9298706054688	1172.4375	762.3140258789062	661.0281982421875	932.3564453125	692.44482421875	718.9427490234375	928.908203125	618.8538208007812	750.9789428710938	1130.84716796875	647.4742431640625	669.9913940429688	744.390380859375	700.4846801757812	637.7741088867188	821.0382080078125	674.26318359375	689.2335815429688	824.0852661132812	617.0240478515625	687.2933959960938	1728.285034179688	1023.383911132812	508.3942565917969	1689.15283203125	903.75634765625	509.7938232421875	1697.429443359375	1001.8720703125	680.4188232421875	1711.745727539062	879.589599609375	619.1105346679688	959.74072265625	769.0741577148438	553.955078125	996.150146484375	873.7306518554688	642.3679809570312	1006.857360839844	1092.366577148438	653.0802001953125	527.1971435546875	1111.195068359375	710.0135498046875	658.0294189453125	1127.064819335938	725.0484619140625	31.67903327941895	1090.625610351562	720.0751953125	284.6674194335938	1109.287353515625	495.6795043945312	39.43659973144531	1068.587158203125	551.6289672851562	48.63085174560547	1044.199340820312	607.9221801757812	32.37939453125	1137.125732421875	780.9525146484375	41.27915573120117	1025.980834960938	554.9512939453125	524.3787231445312	833.3984985351562	579.6807250976562	796.8671264648438	786.9886474609375	796.259033203125	83.14936065673828	776.812744140625	602.1820678710938	401.7967834472656	816.2272338867188	588.37060546875	47.32535171508789	875.6589965820312	657.0557250976562	56.78224945068359	888.1831665039062	650.2620849609375	56.75404357910156	792.4111328125	860.5161743164062	92.27410888671875	806.93603515625	772.8843383789062	959.0602416992188	1110.92822265625	
683	6.82	764.0166625976562	1073.379760742188	829.0132446289062	824.8280029296875	1063.449096679688	980.316162109375	806.6808471679688	1132.718383789062	914.0662841796875	590.0086669921875	1316.2421875	981.315185546875	833.3931274414062	1276.67041015625	920.3170776367188	777.9200439453125	1542.414794921875	953.1864624023438	628.6856689453125	1442.614501953125	978.2745361328125	821.3639526367188	1409.710693359375	859.98193359375	820.2344970703125	1501.907592773438	1042.069091796875	737.4878540039062	1504.296997070312	1135.466796875	793.1643676757812	1386.26611328125	1209.098022460938	813.0537719726562	1174.929931640625	1249.405517578125	843.0506591796875	1153.190307617188	1150.624389648438	685.6693115234375	935.0540771484375	1241.604614257812	768.785888671875	912.3167724609375	1267.414184570312	792.3958740234375	1062.4638671875	1270.790161132812	632.703369140625	754.0833129882812	1249.687622070312	724.2786865234375	828.7562255859375	1283.375732421875	657.4313354492188	847.2396850585938	1269.000122070312	669.9417724609375	1523.810668945312	798.3547973632812	677.9791259765625	1459.6142578125	724.2386474609375	754.1340942382812	1207.650146484375	672.4743041992188	766.2796020507812	1172.835327148438	765.4697875976562	658.9185180664062	932.9602661132812	695.871826171875	716.8219604492188	929.2127685546875	622.3131103515625	749.4352416992188	1131.101928710938	650.65087890625	668.3792114257812	744.8029174804688	704.6854858398438	635.5277099609375	821.6202392578125	677.9637451171875	686.8692626953125	824.4322509765625	620.7025756835938	684.5706787109375	1728.339599609375	1026.581176757812	506.0792846679688	1689.638061523438	906.291259765625	507.1221313476562	1697.7607421875	1004.410888671875	678.2276000976562	1712.037719726562	882.75341796875	617.8278198242188	960.0852661132812	771.1632690429688	552.1644897460938	996.3787231445312	875.5159301757812	639.64990234375	1006.822509765625	1094.515014648438	651.8595581054688	526.857421875	1112.291137695312	708.0728149414062	657.86328125	1128.639770507812	724.9420776367188	31.76776695251465	1090.580078125	719.5003662109375	284.5184631347656	1109.83154296875	495.5804443359375	39.31314086914062	1068.5380859375	551.53271484375	48.54885864257812	1044.157592773438	607.9100952148438	32.37634658813477	1137.117919921875	780.91943359375	41.33513259887695	1025.973266601562	553.8689575195312	524.7694091796875	835.4912109375	578.2617797851562	797.17626953125	788.5521240234375	787.6524047851562	78.80403137207031	785.36083984375	599.7252807617188	401.6287231445312	819.6871337890625	578.2699584960938	48.41012573242188	883.1712036132812	647.0828247070312	56.70348358154297	896.0968627929688	641.0348510742188	55.62595367431641	800.2265014648438	851.8950805664062	87.04224395751953	815.7132568359375	770.1492919921875	959.0802612304688	1113.62060546875	
684	6.83	762.3025512695312	1073.69873046875	831.7232055664062	822.554931640625	1063.65625	983.2646484375	804.7348022460938	1133.049194335938	917.0228271484375	587.4031982421875	1316.328125	983.4207763671875	831.1328735351562	1277.033203125	923.5620727539062	775.3324584960938	1542.659423828125	956.4813232421875	626.0422973632812	1442.764038085938	980.7332153320312	819.2919921875	1410.100341796875	863.3159790039062	817.2409057617188	1502.111450195312	1045.544799804688	734.03662109375	1504.29736328125	1138.50439453125	789.22314453125	1386.18798828125	1212.356567382812	808.4954833984375	1174.845947265625	1252.762817382812	838.9854736328125	1153.018188476562	1154.162841796875	680.4703979492188	935.330810546875	1244.290161132812	763.3933715820312	912.3577270507812	1270.54150390625	787.4222412109375	1062.44921875	1274.045043945312	626.7767333984375	754.5712890625	1252.040771484375	718.4839477539062	828.9375	1286.276245117188	651.7839965820312	847.555419921875	1271.484497070312	668.0838012695312	1524.162353515625	801.1182250976562	676.4463500976562	1459.988403320312	726.9750366210938	752.6965942382812	1207.918701171875	675.4297485351562	764.645751953125	1173.195434570312	768.4716796875	656.65625	933.5831909179688	699.2705688476562	714.5094604492188	929.4734497070312	625.70703125	747.8399658203125	1131.2958984375	653.6917114257812	666.3720092773438	745.2962646484375	708.8070678710938	633.0652465820312	822.2382202148438	681.6880493164062	684.2422485351562	824.7675170898438	624.3524780273438	681.9306030273438	1728.367553710938	1029.608520507812	503.8163757324219	1690.120483398438	908.7047119140625	504.5315856933594	1698.10400390625	1006.815490722656	676.09033203125	1712.31201171875	885.7675170898438	616.5514526367188	960.3955688476562	773.1913452148438	550.3994140625	996.5873413085938	877.24072265625	636.9673461914062	1006.790771484375	1096.590576171875	650.6882934570312	526.5196533203125	1113.346923828125	706.19287109375	657.6996459960938	1130.1455078125	724.8433227539062	31.84938049316406	1090.541625976562	718.9546508789062	284.3739624023438	1110.350952148438	495.4912109375	39.20627975463867	1068.493041992188	551.4451904296875	48.47671127319336	1044.117065429688	607.8963623046875	32.37253189086914	1137.109497070312	780.890380859375	41.39792633056641	1025.95849609375	552.8943481445312	525.1058349609375	837.52587890625	576.8252563476562	797.4555053710938	790.060546875	779.3214721679688	74.80899047851562	793.4548950195312	597.3845825195312	401.460205078125	823.0236206054688	568.74072265625	49.50471878051758	890.4241943359375	637.6519775390625	56.73398590087891	903.661865234375	632.2062377929688	54.56514358520508	807.7344360351562	843.52197265625	82.27411651611328	823.9898681640625	767.4476318359375	959.1019287109375	1116.224609375	
